<svg width="66" height="50" viewBox="0 0 66 50" fill="none" xmlns="http://www.w3.org/2000/svg">
<path d="M65.5621 30.9382C65.253 30.5097 64.6553 30.413 64.2267 30.7217L63.9081 30.9514C63.9095 30.8694 63.9113 30.7875 63.9113 30.7053C63.9113 29.7929 63.5563 28.9343 62.9097 28.286C62.2633 27.6411 61.4046 27.2861 60.4922 27.2861H60.2091C61.2588 25.2579 61.7918 22.8157 61.7918 19.9964C61.7918 14.4673 59.7192 8.42359 56.5117 4.59962C56.172 4.19479 55.5688 4.1418 55.1641 4.48151C54.7595 4.82104 54.7066 5.42436 55.046 5.82902C57.9819 9.32894 59.879 14.8901 59.879 19.9964C59.879 22.9392 59.2464 25.3885 57.9988 27.2861H56.1051L56.9464 26.6871C57.3769 26.3808 57.4773 25.7835 57.171 25.3532C56.8647 24.9229 56.2678 24.8222 55.8371 25.1288L52.807 27.2861H47.1176C47.6909 24.3818 47.0937 21.1372 45.3609 17.8181C44.1206 15.4429 42.359 13.1447 40.3327 11.1976C42.4198 5.91843 45.8738 2.54126 49.2394 2.54126C50.2558 2.54126 51.2801 2.837 52.2837 3.42058C52.7404 3.68582 53.3259 3.53087 53.5914 3.07434C53.8568 2.61765 53.7019 2.03216 53.2452 1.76664C51.9457 1.01127 50.598 0.628296 49.2394 0.628296C45.1677 0.628296 41.2525 4.12698 38.8181 9.84929C37.9889 9.16704 37.1296 8.54665 36.2542 8.00612C32.1338 5.46136 28.2321 4.91221 25.2682 6.45954C22.5343 7.88825 20.7832 11.0563 20.3371 15.3799C20.2828 15.9054 20.6649 16.3753 21.1902 16.4294C21.717 16.4845 22.1857 16.1015 22.2397 15.5762C22.6179 11.9121 24.0079 9.27654 26.1536 8.15505C31.3778 5.4277 40.0055 11.6958 43.6652 18.7035C45.2929 21.8214 45.7936 24.7046 45.16 27.2862H34.436C34.4333 27.2862 34.4308 27.2862 34.4281 27.2862H29.5269L27.9216 25.681C27.5479 25.3076 26.9424 25.3076 26.5689 25.681C26.1954 26.0546 26.1954 26.6602 26.5689 27.0337L26.8213 27.2861H24.1954C23.13 24.8647 22.4296 22.0841 22.2124 19.3867C22.1701 18.8602 21.7094 18.4665 21.1824 18.5101C20.6558 18.5524 20.2634 19.0135 20.3057 19.5401C20.4821 21.7321 20.9346 23.9133 21.6329 25.9717C18.9068 23.6487 15.346 22.4003 11.6799 22.5995C11.3382 22.6181 11.0323 22.8179 10.8782 23.1234C9.43974 25.9715 9.03532 29.1863 9.63186 32.2307C9.63747 32.3231 9.65571 32.4117 9.6856 32.4949C9.87303 33.3636 10.1434 34.2166 10.4943 35.0421C6.40038 35.6771 2.76486 38.0902 0.585741 41.6847C0.408345 41.9773 0.400949 42.3424 0.566102 42.6422C2.10731 45.4393 4.53665 47.5882 7.39067 48.8127C7.4668 48.8573 7.54625 48.8911 7.628 48.9128C9.20417 49.5554 10.9038 49.9185 12.6516 49.9546C12.7474 49.9566 12.8421 49.9575 12.9376 49.9575C13.618 49.9575 14.292 49.9061 14.956 49.8096C15.0186 49.8058 15.0807 49.7978 15.141 49.7822C17.9523 49.3349 20.5659 48.044 22.6293 46.1043C22.6761 46.1113 22.7236 46.1161 22.7723 46.1161H27.0642C27.5925 46.1161 28.0207 45.688 28.0207 45.1597C28.0207 44.6313 27.5925 44.2032 27.0642 44.2032H24.318C24.5689 43.863 24.8068 43.5109 25.0282 43.1455C25.035 43.1343 25.0404 43.1226 25.0467 43.1113C25.0524 43.1009 25.0593 43.0915 25.0647 43.0808C27.2925 38.6672 27.0404 33.3737 24.4227 29.199H28.7342L31.3383 31.8031C31.5251 31.9898 31.7699 32.0832 32.0147 32.0832C32.2594 32.0832 32.5043 31.9898 32.6911 31.8031C33.0646 31.4294 33.0646 30.824 32.6911 30.4503L31.4398 29.199H34.0359L37.5869 32.75C37.7738 32.9368 38.0186 33.0301 38.2633 33.0301C38.5081 33.0301 38.753 32.9368 38.9398 32.75C39.3133 32.3764 39.3133 31.7708 38.9398 31.3973L36.7416 29.1992H45.8785L45.8816 29.1994L45.8848 29.1992H50.1203L48.0321 30.6858C47.6017 30.9921 47.5013 31.5893 47.8076 32.0196C47.9942 32.2819 48.2885 32.4215 48.5876 32.4215C48.7794 32.4215 48.9731 32.3638 49.1415 32.244L53.4183 29.199H58.4971L58.4988 29.1992L58.501 29.199H60.4929C60.8952 29.199 61.2741 29.3558 61.5577 29.6385C61.8423 29.9238 61.999 30.3027 61.999 30.7052C61.999 31.281 61.9626 31.8483 61.8922 32.4054L54.8691 37.4694C54.4408 37.7784 54.3438 38.3762 54.6527 38.8048C54.8398 39.0641 55.1325 39.2019 55.4294 39.2019C55.6232 39.2019 55.8189 39.1432 55.9881 39.0212L61.2085 35.2572C60.1655 38.1595 58.1551 40.604 55.5678 42.2004L44.9011 31.5337C44.5274 31.1603 43.9219 31.1603 43.5483 31.5337C43.1748 31.9074 43.1748 32.5129 43.5483 32.8865L53.7864 43.1245C52.4 43.7168 50.8951 44.083 49.318 44.1775L45.1481 40.0078C44.7747 39.6344 44.169 39.6342 43.7955 40.0079C43.422 40.3815 43.422 40.987 43.7956 41.3605L46.6381 44.2029H37.2744L35.7397 42.6684C35.3661 42.2949 34.7606 42.2949 34.387 42.6684C34.0135 43.042 34.0135 43.6476 34.387 44.0211L34.5689 44.2029H31.0492C30.5208 44.2029 30.0927 44.6311 30.0927 45.1594C30.0927 45.6878 30.5208 46.1159 31.0492 46.1159H36.481L38.6383 48.2732C38.8251 48.4599 39.07 48.5533 39.3148 48.5533C39.5594 48.5533 39.8043 48.4599 39.9911 48.2732C40.3647 47.8996 40.3647 47.2941 39.9911 46.9205L39.1865 46.1159H48.4992C50.9106 46.1159 53.1941 45.5587 55.2285 44.5673L56.032 45.3708C56.2188 45.5575 56.4637 45.6508 56.7084 45.6508C56.9531 45.6508 57.198 45.5575 57.3848 45.3708C57.7584 44.9971 57.7584 44.3916 57.3848 44.018L56.9517 43.5849C60.4002 41.3146 62.8872 37.6986 63.6587 33.4898L65.3458 32.2734C65.7741 31.9645 65.871 31.3668 65.5621 30.9382ZM22.6811 30.0235C22.7884 30.1877 22.8898 30.3546 22.9885 30.5228L20.5674 35.327L17.8029 31.0969L19.7377 26.9066C20.8803 27.7531 21.8826 28.8018 22.6811 30.0235ZM19.52 37.221L14.247 37.4865C13.8915 37.0765 13.5609 36.6411 13.2599 36.1804C12.6309 35.218 12.151 34.183 11.8204 33.1094L16.7801 33.0284L19.52 37.221ZM18.1028 25.8839L16.5682 29.2073L13.5181 24.5402C15.131 24.6834 16.6882 25.1463 18.1028 25.8839ZM11.9162 25.5856L15.5431 31.1354L11.3958 31.2031C11.1333 29.3305 11.3039 27.4036 11.9162 25.5856ZM11.4218 36.8514C11.4987 36.9773 11.5774 37.1026 11.6584 37.2268C12.0835 37.8771 12.5587 38.4843 13.076 39.0468C13.1138 39.096 13.1562 39.1411 13.2025 39.182C14.0617 40.092 15.0335 40.8789 16.0884 41.5265L11.0561 41.423L8.68344 37.4548C9.56204 37.1513 10.4799 36.9472 11.4218 36.8514ZM6.91548 38.2254L8.79937 41.3765L3.2227 41.2618C4.25034 40.0067 5.50767 38.9781 6.91548 38.2254ZM7.52928 46.773C5.83504 45.9332 4.34026 44.7053 3.18482 43.1743L9.81301 43.3106L7.52928 46.773ZM14.3257 47.9637C13.7866 48.026 13.2405 48.053 12.6904 48.0421C11.541 48.0183 10.4156 47.8306 9.34288 47.4978L12.074 43.357L17.0812 43.46L14.3257 47.9637ZM16.9338 47.3662L19.2959 43.5056L22.1994 43.5653C22.2591 43.5708 22.319 43.5747 22.3789 43.5794C20.9395 45.3267 19.0465 46.6319 16.9338 47.3662ZM22.3111 41.6544C20.0919 41.4369 17.982 40.614 16.21 39.3031L20.7317 39.0753L22.4185 41.6566L22.3111 41.6544ZM24.0253 40.6184L21.7768 37.1778L24.0086 32.7492C24.8723 35.2845 24.8866 38.0593 24.0253 40.6184Z" fill="#253D4E"/>
</svg>
